<svg width="140" height="140" viewBox="0 0 140 140" fill="none" xmlns="http://www.w3.org/2000/svg">
<g clip-path="url(#clip0_1_556)">
<circle cx="70" cy="70" r="70" fill="#80CBCE" fill-opacity="0.18"/>
<path d="M92.0517 45.6579C93.1576 44.5827 94.6294 43.9884 96.1563 44.0002C97.6833 44.012 99.146 44.629 100.236 45.7211C101.326 46.8132 101.958 48.2949 101.998 49.8536C102.038 51.4122 101.484 52.926 100.452 54.0753L69.1268 94.0784C68.5882 94.6708 67.9381 95.1462 67.2154 95.4762C66.4927 95.8062 65.7122 95.984 64.9207 95.999C64.1292 96.0139 63.3428 95.8658 62.6086 95.5633C61.8744 95.2609 61.2075 94.8103 60.6478 94.2387L39.8741 73.0267C39.2956 72.4762 38.8316 71.8125 38.5097 71.0749C38.1879 70.3374 38.0149 69.5412 38.0009 68.7339C37.987 67.9266 38.1324 67.1247 38.4286 66.3761C38.7247 65.6274 39.1655 64.9473 39.7246 64.3764C40.2838 63.8055 40.9498 63.3554 41.683 63.053C42.4162 62.7506 43.2015 62.6021 43.9921 62.6163C44.7827 62.6306 45.5624 62.8073 46.2847 63.1359C47.007 63.4645 47.6571 63.9383 48.1961 64.529L64.6361 81.3079L91.9025 45.8342C91.9516 45.7725 92.004 45.7136 92.0595 45.6579H92.0517Z" fill="#128ECC"/>
</g>
<defs>
<clipPath id="clip0_1_556">
<rect width="140" height="140" fill="white"/>
</clipPath>
</defs>
</svg>
