<svg width="140" height="140" viewBox="0 0 140 140" fill="none" xmlns="http://www.w3.org/2000/svg">
<circle cx="70" cy="70" r="70" fill="#E8F6F6"/>
<path d="M65.05 53.7012H74.95C74.95 52.4204 74.4285 51.1921 73.5002 50.2864C72.5719 49.3807 71.3128 48.872 70 48.872C68.6872 48.872 67.4281 49.3807 66.4998 50.2864C65.5715 51.1921 65.05 52.4204 65.05 53.7012ZM61.3375 53.7012C61.3375 52.5914 61.5616 51.4924 61.9969 50.4671C62.4322 49.4417 63.0703 48.5101 63.8747 47.7253C64.6791 46.9405 65.634 46.318 66.685 45.8933C67.736 45.4686 68.8624 45.25 70 45.25C71.1376 45.25 72.264 45.4686 73.315 45.8933C74.366 46.318 75.3209 46.9405 76.1253 47.7253C76.9297 48.5101 77.5678 49.4417 78.0031 50.4671C78.4384 51.4924 78.6625 52.5914 78.6625 53.7012H92.8937C93.3861 53.7012 93.8582 53.892 94.2063 54.2316C94.5544 54.5713 94.75 55.0319 94.75 55.5122C94.75 55.9925 94.5544 56.4531 94.2063 56.7927C93.8582 57.1324 93.3861 57.3232 92.8937 57.3232H89.6267L86.731 86.5668C86.5089 88.8075 85.4392 90.8872 83.7305 92.4001C82.0219 93.9131 79.7968 94.7509 77.4893 94.75H62.5107C60.2036 94.7503 57.9792 93.9122 56.271 92.3993C54.5629 90.8864 53.4936 88.8071 53.2715 86.5668L50.3733 57.3232H47.1062C46.6139 57.3232 46.1418 57.1324 45.7937 56.7927C45.4456 56.4531 45.25 55.9925 45.25 55.5122C45.25 55.0319 45.4456 54.5713 45.7937 54.2316C46.1418 53.892 46.6139 53.7012 47.1062 53.7012H61.3375ZM66.2875 65.1707C66.2875 64.6904 66.0919 64.2298 65.7438 63.8902C65.3957 63.5506 64.9236 63.3598 64.4312 63.3598C63.9389 63.3598 63.4668 63.5506 63.1187 63.8902C62.7706 64.2298 62.575 64.6904 62.575 65.1707V83.2805C62.575 83.7608 62.7706 84.2214 63.1187 84.561C63.4668 84.9007 63.9389 85.0915 64.4312 85.0915C64.9236 85.0915 65.3957 84.9007 65.7438 84.561C66.0919 84.2214 66.2875 83.7608 66.2875 83.2805V65.1707ZM75.5687 63.3598C76.0611 63.3598 76.5332 63.5506 76.8813 63.8902C77.2294 64.2298 77.425 64.6904 77.425 65.1707V83.2805C77.425 83.7608 77.2294 84.2214 76.8813 84.561C76.5332 84.9007 76.0611 85.0915 75.5687 85.0915C75.0764 85.0915 74.6043 84.9007 74.2562 84.561C73.9081 84.2214 73.7125 83.7608 73.7125 83.2805V65.1707C73.7125 64.6904 73.9081 64.2298 74.2562 63.8902C74.6043 63.5506 75.0764 63.3598 75.5687 63.3598ZM56.9667 86.2191C57.1001 87.5632 57.7419 88.8106 58.7669 89.7182C59.7918 90.6257 61.1265 91.1283 62.5107 91.128H77.4893C78.8735 91.1283 80.2082 90.6257 81.2331 89.7182C82.2581 88.8106 82.8999 87.5632 83.0333 86.2191L85.8994 57.3232H54.1006L56.9667 86.2191Z" fill="#128ECC"/>
</svg>
