<svg width="24" height="24" viewBox="0 0 24 24" fill="none" xmlns="http://www.w3.org/2000/svg">
<path d="M10.2 6.07317H13.8C13.8 5.60742 13.6104 5.16075 13.2728 4.83142C12.9352 4.50209 12.4774 4.31707 12 4.31707C11.5226 4.31707 11.0648 4.50209 10.7272 4.83142C10.3896 5.16075 10.2 5.60742 10.2 6.07317ZM8.85 6.07317C8.85 5.6696 8.93148 5.26997 9.08978 4.89712C9.24808 4.52427 9.48011 4.18548 9.77261 3.90011C10.0651 3.61474 10.4124 3.38837 10.7945 3.23393C11.1767 3.07949 11.5863 3 12 3C12.4137 3 12.8233 3.07949 13.2055 3.23393C13.5876 3.38837 13.9349 3.61474 14.2274 3.90011C14.5199 4.18548 14.7519 4.52427 14.9102 4.89712C15.0685 5.26997 15.15 5.6696 15.15 6.07317H20.325C20.504 6.07317 20.6757 6.14255 20.8023 6.26605C20.9289 6.38955 21 6.55705 21 6.73171C21 6.90636 20.9289 7.07386 20.8023 7.19736C20.6757 7.32086 20.504 7.39024 20.325 7.39024H19.137L18.084 18.0243C18.0032 18.8391 17.6142 19.5953 16.9929 20.1455C16.3716 20.6957 15.5625 21.0003 14.7234 21H9.2766C8.43768 21.0001 7.62879 20.6954 7.00765 20.1452C6.38652 19.5951 5.99766 18.839 5.9169 18.0243L4.863 7.39024H3.675C3.49598 7.39024 3.32429 7.32086 3.1977 7.19736C3.07112 7.07386 3 6.90636 3 6.73171C3 6.55705 3.07112 6.38955 3.1977 6.26605C3.32429 6.14255 3.49598 6.07317 3.675 6.07317H8.85ZM10.65 10.2439C10.65 10.0692 10.5789 9.90175 10.4523 9.77825C10.3257 9.65475 10.154 9.58537 9.975 9.58537C9.79598 9.58537 9.62429 9.65475 9.4977 9.77825C9.37112 9.90175 9.3 10.0692 9.3 10.2439V16.8293C9.3 17.0039 9.37112 17.1714 9.4977 17.2949C9.62429 17.4184 9.79598 17.4878 9.975 17.4878C10.154 17.4878 10.3257 17.4184 10.4523 17.2949C10.5789 17.1714 10.65 17.0039 10.65 16.8293V10.2439ZM14.025 9.58537C14.204 9.58537 14.3757 9.65475 14.5023 9.77825C14.6289 9.90175 14.7 10.0692 14.7 10.2439V16.8293C14.7 17.0039 14.6289 17.1714 14.5023 17.2949C14.3757 17.4184 14.204 17.4878 14.025 17.4878C13.846 17.4878 13.6743 17.4184 13.5477 17.2949C13.4211 17.1714 13.35 17.0039 13.35 16.8293V10.2439C13.35 10.0692 13.4211 9.90175 13.5477 9.77825C13.6743 9.65475 13.846 9.58537 14.025 9.58537ZM7.2606 17.8979C7.30914 18.3866 7.54252 18.8402 7.91523 19.1702C8.28794 19.5003 8.77327 19.683 9.2766 19.6829H14.7234C15.2267 19.683 15.7121 19.5003 16.0848 19.1702C16.4575 18.8402 16.6909 18.3866 16.7394 17.8979L17.7816 7.39024H6.2184L7.2606 17.8979Z" fill="#F55959"/>
</svg>
