<svg width="86" height="86" viewBox="0 0 86 86" fill="none" xmlns="http://www.w3.org/2000/svg">
<g clip-path="url(#clip0_1230_26)">
<circle cx="43" cy="43" r="43" fill="#E8F6F6"/>
<g filter="url(#filter0_d_1230_26)">
<rect x="24.1308" y="19.2369" width="37.7354" height="48.4598" rx="1.1" fill="white" stroke="#128ECC" stroke-width="0.2"/>
<path d="M34.8624 21.6868H26.3928V23.5862H34.8624V21.6868Z" fill="#E8F6F6"/>
<path d="M47.2802 23.0566C47.2802 23.176 44.9632 23.2783 42.1072 23.2783C39.2491 23.2783 36.932 23.176 36.932 23.0566C36.932 22.9373 39.2491 22.835 42.1072 22.835C44.9654 22.835 47.2802 22.9287 47.2802 23.0566Z" fill="#128ECC"/>
<path d="M47.0893 25.3354C47.0893 25.4548 42.4552 25.5571 36.7411 25.5571C31.0249 25.5571 26.3929 25.4548 26.3929 25.3354C26.3929 25.2161 31.0249 25.1138 36.7411 25.1138C42.4552 25.1138 47.0893 25.2076 47.0893 25.3354Z" fill="#128ECC"/>
<path d="M47.0893 27.5654C47.0893 27.6848 42.4552 27.7871 36.7411 27.7871C31.0249 27.7871 26.3929 27.6848 26.3929 27.5654C26.3929 27.4461 31.0249 27.3438 36.7411 27.3438C42.4552 27.3438 47.0893 27.4375 47.0893 27.5654Z" fill="#128ECC"/>
<path d="M59.6007 32.8374C59.6007 32.9568 52.1749 33.0591 43.0181 33.0591C33.8582 33.0591 26.434 32.9568 26.434 32.8374C26.434 32.718 33.8582 32.6157 43.0181 32.6157C52.1765 32.6157 59.6007 32.7095 59.6007 32.8374Z" fill="#128ECC"/>
<path d="M59.6007 59.6706C59.6007 59.7241 52.1749 59.7699 43.0181 59.7699C33.8582 59.7699 26.434 59.7241 26.434 59.6706C26.434 59.6171 33.8582 59.5713 43.0181 59.5713C52.1765 59.5713 59.6007 59.6133 59.6007 59.6706Z" fill="#128ECC"/>
<path d="M32.8581 63.4783C32.8581 63.5977 31.4749 63.6999 29.7692 63.6999C28.0618 63.6999 26.6802 63.5977 26.6802 63.4783C26.6802 63.3589 28.0634 63.2566 29.7692 63.2566C31.4749 63.2566 32.8581 63.3589 32.8581 63.4783Z" fill="#128ECC"/>
<path d="M54.1748 44.0383C54.1748 44.1577 48.1133 44.26 40.6371 44.26C33.1578 44.26 27.0978 44.1577 27.0978 44.0383C27.0978 43.919 33.1578 43.8167 40.6371 43.8167C48.1117 43.8167 54.1748 43.919 54.1748 44.0383Z" fill="#128ECC"/>
<path d="M54.0695 36.6943C54.0695 36.8137 48.008 36.916 40.5318 36.916C33.0525 36.916 26.9926 36.8137 26.9926 36.6943C26.9926 36.575 33.0525 36.4727 40.5318 36.4727C48.0064 36.4727 54.0695 36.575 54.0695 36.6943Z" fill="#128ECC"/>
<path d="M54.0771 51.8096C54.0771 51.9289 48.0156 52.0312 40.5394 52.0312C33.0601 52.0312 27.0002 51.9289 27.0002 51.8096C27.0002 51.6902 33.0601 51.5879 40.5394 51.5879C48.014 51.5879 54.0771 51.6902 54.0771 51.8096Z" fill="#128ECC"/>
<path d="M54.7003 46.0247C54.7003 46.1439 48.5208 46.2461 40.8999 46.2461C33.2758 46.2461 27.0978 46.1439 27.0978 46.0247C27.0978 45.9054 33.2758 45.8032 40.8999 45.8032C48.5208 45.7947 54.7003 45.8969 54.7003 46.0247Z" fill="#128ECC"/>
<path d="M54.5951 38.6799C54.5951 38.7992 48.4155 38.9014 40.7946 38.9014C33.1705 38.9014 26.9926 38.7992 26.9926 38.6799C26.9926 38.5607 33.1705 38.4585 40.7946 38.4585C48.4155 38.45 54.5951 38.5522 54.5951 38.6799Z" fill="#128ECC"/>
<path d="M54.6027 53.7949C54.6027 53.9141 48.4232 54.0164 40.8022 54.0164C33.1781 54.0164 27.0002 53.9141 27.0002 53.7949C27.0002 53.6757 33.1781 53.5735 40.8022 53.5735C48.4232 53.565 54.6027 53.6672 54.6027 53.7949Z" fill="#128ECC"/>
<path d="M40.4803 48.008C40.4803 48.1274 37.4134 48.2297 33.632 48.2297C29.8491 48.2297 26.7837 48.1274 26.7837 48.008C26.7837 47.8887 29.8491 47.7864 33.632 47.7864C37.4134 47.7864 40.4803 47.8887 40.4803 48.008Z" fill="#128ECC"/>
<path d="M40.3768 40.6648C40.3768 40.7842 37.3099 40.8865 33.5285 40.8865C29.7456 40.8865 26.6802 40.7842 26.6802 40.6648C26.6802 40.5454 29.7456 40.4431 33.5285 40.4431C37.3099 40.4431 40.3768 40.5454 40.3768 40.6648Z" fill="#128ECC"/>
<path d="M40.3768 55.7795C40.3768 55.8989 37.3099 56.0012 33.5285 56.0012C29.7456 56.0012 26.6802 55.8989 26.6802 55.7795C26.6802 55.6602 29.7456 55.5579 33.5285 55.5579C37.3099 55.5579 40.3768 55.6602 40.3768 55.7795Z" fill="#128ECC"/>
</g>
<path d="M65.2238 19.3367L63.3389 22.6006H59.5707L57.6857 19.3367L59.5707 16.0728H63.3389L65.2238 19.3367Z" fill="#128ECC"/>
</g>
<defs>
<filter id="filter0_d_1230_26" x="22.0308" y="17.137" width="45.9354" height="56.6597" filterUnits="userSpaceOnUse" color-interpolation-filters="sRGB">
<feFlood flood-opacity="0" result="BackgroundImageFix"/>
<feColorMatrix in="SourceAlpha" type="matrix" values="0 0 0 0 0 0 0 0 0 0 0 0 0 0 0 0 0 0 127 0" result="hardAlpha"/>
<feOffset dx="2" dy="2"/>
<feGaussianBlur stdDeviation="2"/>
<feComposite in2="hardAlpha" operator="out"/>
<feColorMatrix type="matrix" values="0 0 0 0 0 0 0 0 0 0 0 0 0 0 0 0 0 0 0.08 0"/>
<feBlend mode="normal" in2="BackgroundImageFix" result="effect1_dropShadow_1230_26"/>
<feBlend mode="normal" in="SourceGraphic" in2="effect1_dropShadow_1230_26" result="shape"/>
</filter>
<clipPath id="clip0_1230_26">
<rect width="86" height="86" fill="white"/>
</clipPath>
</defs>
</svg>
