<svg width="524" height="547" viewBox="0 0 524 547" fill="none" xmlns="http://www.w3.org/2000/svg">
<path d="M102.397 228.422C119.507 153.034 197.731 107.773 271.164 131.451C272.646 131.919 274.127 132.427 275.629 132.936C371.633 166.012 340.132 263.736 388.134 293.801C436.136 323.867 470.64 367.46 449.633 424.601C428.626 481.722 301.122 535.852 200.613 474.216C121.638 425.761 80.6388 324.355 102.397 228.422Z" stroke="#C8E5F3" stroke-width="1.1086" stroke-miterlimit="10"/>
<path d="M124.848 139.045C130.28 105.023 107.164 73.0288 73.2177 67.5847C39.2712 62.1405 7.34855 85.3078 1.91655 119.33C-3.51544 153.353 19.6002 185.347 53.5467 190.791C87.4932 196.235 119.416 173.068 124.848 139.045Z" stroke="#C8E5F3" stroke-width="1.1086" stroke-miterlimit="10"/>
<path d="M362.763 411.074H145.04C140.149 411.074 136.881 406.029 138.87 401.554L293.348 54.2525C294.424 51.8115 296.839 50.2451 299.519 50.2451H517.241C522.133 50.2451 525.401 55.29 523.411 59.7652L368.933 407.067C367.837 409.508 365.422 411.074 362.763 411.074Z" fill="url(#paint0_linear_303_28)"/>
<path d="M428.748 166.114L499.015 8.1572C500.72 4.33288 497.919 0 493.738 0H296.575C289.269 0 282.632 4.31253 279.648 11.0051L208.325 171.362C206.62 175.186 209.421 179.519 213.603 179.519H408.126C417.036 179.519 425.114 174.271 428.748 166.114Z" fill="white"/>
<path d="M403.255 274.354L473.522 116.398C475.227 112.573 472.426 108.24 468.245 108.24H271.083C263.776 108.24 257.139 112.553 254.155 119.246L182.833 279.603C181.128 283.427 183.929 287.76 188.11 287.76H382.634C391.544 287.76 399.622 282.512 403.255 274.354Z" stroke="white" stroke-width="1.1086" stroke-miterlimit="10"/>
<path opacity="0.39" d="M313.889 218.556H322.88L298.707 265.912H152.449L158.355 254.338" stroke="#128ECC" stroke-opacity="0.6" stroke-width="0.5543" stroke-miterlimit="10"/>
<path d="M330.939 87.3717C349.471 71.2709 354.71 46.9052 342.639 32.9495C330.568 18.9937 305.76 20.7326 287.227 36.8335C268.695 52.9343 263.457 77.2999 275.528 91.2557C287.598 105.211 312.407 103.473 330.939 87.3717Z" fill="#E6F4FF"/>
<path d="M328.359 84.3885C344.706 70.1863 349.328 48.6947 338.681 36.3858C328.035 24.0769 306.153 25.6118 289.806 39.814C273.459 54.0163 268.837 75.5079 279.484 87.8168C290.13 100.126 312.012 98.5908 328.359 84.3885Z" fill="#128ECC" fill-opacity="0.5"/>
<path d="M309.707 68.9192C309.707 68.9192 291.867 71.8688 284.235 74.8794C279.059 78.0121 278.248 80.4939 277.009 84.2165C277.009 84.2165 276.989 84.2368 276.989 84.2572C281.13 91.5193 289.025 96.137 299.336 96.137C312.65 96.137 326.351 88.4273 335.119 77.2391C330.369 70.2414 309.707 68.9192 309.707 68.9192Z" fill="#128ECC" fill-opacity="0.5"/>
<path d="M303.436 61.3112L300.351 74.3302C299.965 75.9575 300.777 77.3205 302.319 77.5646C304.735 77.9511 308.571 77.9307 312.65 75.3066C313.889 74.5132 314.721 73.1707 314.802 71.9094C315.228 65.8271 316.466 53.3574 316.466 53.3574L303.436 61.3112Z" fill="#FF8D68"/>
<path d="M300.655 47.4989C300.655 47.4989 292.273 64.5049 293.896 69.0819C295.784 72.1942 312.63 65.1966 315.391 60.6399C318.151 56.0833 324.483 47.8244 319.551 42.6575C314.64 37.4906 307.008 39.2603 300.655 47.4989Z" fill="#FF8D68"/>
<path d="M300.655 47.4989C300.655 47.4989 299.173 41.4979 304.248 37.9584C309.322 34.4189 315.837 35.1308 318.171 38.6704C320.505 42.2099 320.708 42.7388 320.708 42.7388C320.708 42.7388 323.205 43.2677 324.037 45.9325C324.869 48.5973 319.592 55.3102 317.44 57.2631C315.289 59.2159 315.736 59.2566 315.736 59.2566L315.025 58.3209C315.025 58.3209 315.431 53.1947 316.466 50.184C316.75 48.5973 314.924 46.2987 311.737 45.7698C308.551 45.2205 307.373 48.2108 300.655 47.4989Z" fill="#7E3636"/>
<path d="M316.994 55.2493C316.994 55.2493 318.151 53.0727 320.241 53.7033C322.312 54.3949 318.191 60.884 315.999 60.4365C313.909 59.8873 316.994 55.2493 316.994 55.2493Z" fill="#FF8D68"/>
<path d="M314.964 69.4683C314.964 69.4683 310.479 74.4317 306.074 75.8353C305.303 76.0794 304.146 77.6051 304.146 77.6051L303.334 75.4895C303.334 75.4895 300.31 73.7198 301.183 70.6481L300.574 71.116L298.95 75.1234C298.95 75.1234 297.753 78.907 297.814 80.3106L301.873 78.073C301.873 78.073 304.349 78.907 306.318 78.195C306.318 78.195 307.15 81.0226 307.921 81.2667C308.672 81.5108 314.802 75.7133 315.736 73.7198C316.771 71.7059 316.527 69.7124 316.527 69.7124L314.964 69.4683Z" fill="white"/>
<path opacity="0.39" d="M444.275 76.9544H358.866C356.248 76.9544 354.888 74.8185 355.842 72.1943L367.939 38.9146C368.893 36.2905 371.795 34.1545 374.413 34.1545H459.822C462.44 34.1545 463.8 36.2905 462.846 38.9146L450.749 72.1943C449.795 74.8185 446.893 76.9544 444.275 76.9544Z" fill="#128ECC" fill-opacity="0.6"/>
<path d="M449.207 49.2078H375.672L376.971 45.6479H450.506L449.207 49.2078Z" fill="#128ECC" fill-opacity="0.5"/>
<path d="M416.935 57.5276H372.648L373.947 53.9678H418.234L416.935 57.5276Z" fill="#128ECC" fill-opacity="0.5"/>
<path d="M381.375 65.0543H369.907L371.206 61.4944H382.674L381.375 65.0543Z" fill="#128ECC" fill-opacity="0.5"/>
<path d="M362.824 92.2516C361.626 95.2012 358.277 97.6016 355.314 97.6016C352.371 97.6016 350.93 95.2012 352.128 92.2516C353.325 89.302 356.674 86.9016 359.637 86.9016C362.601 86.9016 364.021 89.302 362.824 92.2516Z" fill="#128ECC" fill-opacity="0.5"/>
<path d="M381.395 92.2516C380.198 95.2012 376.849 97.6016 373.886 97.6016C370.922 97.6016 369.502 95.2012 370.699 92.2516C371.897 89.302 375.246 86.9016 378.209 86.9016C381.152 86.9016 382.593 89.302 381.395 92.2516Z" fill="#128ECC" fill-opacity="0.5"/>
<path d="M399.947 92.2516C398.749 95.2012 395.4 97.6016 392.437 97.6016C389.494 97.6016 388.053 95.2012 389.25 92.2516C390.448 89.302 393.797 86.9016 396.76 86.9016C399.723 86.9016 401.144 89.302 399.947 92.2516Z" fill="#128ECC" fill-opacity="0.5"/>
<path d="M418.518 92.2516C417.321 95.2012 413.972 97.6016 411.008 97.6016C408.065 97.6016 406.624 95.2012 407.822 92.2516C409.019 89.302 412.368 86.9016 415.331 86.9016C418.295 86.9016 419.716 89.302 418.518 92.2516Z" fill="#F8CE18"/>
<path opacity="0.39" d="M437.09 92.2516C435.892 95.2012 432.543 97.6016 429.58 97.6016C426.637 97.6016 425.196 95.2012 426.393 92.2516C427.591 89.302 430.94 86.9016 433.903 86.9016C436.846 86.9016 438.267 89.302 437.09 92.2516Z" fill="#128ECC" fill-opacity="0.6"/>
<path opacity="0.39" d="M392.985 108.545L369.42 133.078L345.003 142.781L372.668 163.144L400.474 139.364L392.985 108.545Z" fill="#128ECC" fill-opacity="0.6"/>
<path opacity="0.7" d="M387.383 122.805L369.42 133.078L354.198 142.72L374.819 157.57L394.324 139.71L387.383 122.805Z" fill="#128ECC" fill-opacity="0.6"/>
<path d="M392.985 108.545L369.42 133.078L345.003 142.781L372.587 163.347L400.474 139.364L392.985 108.545Z" stroke="#128ECC" stroke-opacity="0.5" stroke-width="0.2806" stroke-miterlimit="10"/>
<path d="M381.903 141.642C381.517 142.578 380.441 143.351 379.508 143.351C378.574 143.351 378.107 142.578 378.493 141.642C378.879 140.706 379.954 139.933 380.888 139.933C381.842 139.933 382.288 140.706 381.903 141.642Z" fill="#128ECC" fill-opacity="0.5"/>
<path d="M358.744 124.718L379.589 141.256L342.365 143.168" stroke="#128ECC" stroke-opacity="0.5" stroke-width="0.2806" stroke-miterlimit="10"/>
<path d="M371.044 169.043L380.36 141.256L404.899 138.794" stroke="#128ECC" stroke-opacity="0.5" stroke-width="0.2806" stroke-miterlimit="10"/>
<path d="M394.365 105.108L380.36 141.256" stroke="#128ECC" stroke-opacity="0.5" stroke-width="0.2806" stroke-miterlimit="10"/>
<path d="M360.632 124.392C359.982 125.979 358.196 127.26 356.613 127.26C355.03 127.26 354.259 125.979 354.908 124.392C355.558 122.805 357.344 121.524 358.927 121.524C360.51 121.524 361.281 122.805 360.632 124.392Z" fill="#128ECC" fill-opacity="0.5"/>
<path d="M343.765 143.188C343.116 144.775 341.33 146.057 339.747 146.057C338.163 146.057 337.392 144.775 338.042 143.188C338.691 141.602 340.477 140.32 342.06 140.32C343.623 140.32 344.394 141.602 343.765 143.188Z" fill="#F8CE18"/>
<path d="M373.764 169.491C373.114 171.077 371.328 172.359 369.745 172.359C368.162 172.359 367.391 171.077 368.04 169.491C368.69 167.904 370.476 166.622 372.059 166.622C373.642 166.622 374.393 167.904 373.764 169.491Z" fill="#128ECC" fill-opacity="0.5"/>
<path d="M408.228 138.835C407.578 140.422 405.792 141.703 404.209 141.703C402.626 141.703 401.854 140.422 402.504 138.835C403.153 137.248 404.94 135.967 406.523 135.967C408.106 135.946 408.877 137.248 408.228 138.835Z" fill="#128ECC" fill-opacity="0.5"/>
<path d="M397.531 104.152C396.882 105.738 395.096 107.02 393.513 107.02C391.929 107.02 391.158 105.738 391.808 104.152C392.457 102.565 394.243 101.283 395.826 101.283C397.409 101.283 398.181 102.565 397.531 104.152Z" fill="#F8CE18"/>
<path d="M332.419 128.135H260.934L266.394 114.587H337.9L332.419 128.135Z" fill="#128ECC" fill-opacity="0.5"/>
<path opacity="0.39" d="M289.37 158.648H248.635L250.969 152.83H291.725L289.37 158.648Z" fill="#128ECC" fill-opacity="0.6"/>
<path opacity="0.39" d="M283.261 147.012H253.323L258.783 133.465H288.741L283.261 147.012Z" fill="#128ECC" fill-opacity="0.6"/>
<path d="M442.062 291.645L477.054 213.003C477.906 211.09 476.506 208.934 474.435 208.934H376.281C372.648 208.934 369.339 211.09 367.858 214.406L332.338 294.249C331.486 296.161 332.886 298.317 334.957 298.317H431.812C436.217 298.317 440.256 295.714 442.062 291.645Z" fill="white"/>
<path opacity="0.39" d="M422.171 272.199C438.699 258.647 444.761 238.674 435.711 227.587C426.661 216.5 405.926 218.498 389.398 232.05C372.87 245.602 366.808 265.575 375.858 276.662C384.907 287.749 405.642 285.751 422.171 272.199Z" fill="#128ECC" fill-opacity="0.6"/>
<path d="M408.39 255.396C408.39 255.396 424.303 263.329 425.987 270.591C427.672 277.853 420.609 297.015 420.609 297.015H357.344C357.344 297.015 367.715 274.558 375.773 269.269C383.831 263.98 399.399 259.952 399.399 259.952L408.39 255.396Z" fill="#128ECC"/>
<path d="M401.875 250.229L396.902 260.969C396.273 262.312 396.659 263.532 397.815 263.899C399.622 264.448 402.646 264.773 406.36 262.922C407.497 262.353 408.39 261.295 408.715 260.237C410.237 255.131 413.647 244.696 413.647 244.696L401.875 250.229Z" fill="#128ECC" fill-opacity="0.5"/>
<path d="M402.403 238.308C402.403 238.308 392.498 251.958 392.883 255.965C393.756 258.772 408.349 254.358 411.394 250.757C414.459 247.137 421.035 240.729 418.173 235.908C415.311 231.087 408.979 231.88 402.403 238.308Z" fill="#128ECC" fill-opacity="0.5"/>
<path d="M402.808 236.294C402.808 236.294 402.646 236.518 402.463 236.823C401.895 237.8 401.043 239.752 403.417 239.874C406.584 240.037 406.584 240.037 406.584 240.037C406.584 240.037 411.678 237.128 413.687 240.2C415.169 243.272 410.318 245.163 410.724 246.689C411.13 248.235 410.927 247.889 410.237 248.744C409.547 249.598 408.999 250.961 406.705 251.998C404.412 253.016 402.605 252.853 400.413 254.053C398.221 255.253 394 253.89 393.553 252.853C392.538 251.998 391.95 253.87 391.3 255.07C390.651 256.27 388.641 256.616 390.569 258.142C392.518 259.688 393.939 260.359 397.328 258.304C400.718 256.25 400.819 256.433 404.229 255.558C407.639 254.704 410.176 252.975 411.495 250.839C412.794 248.703 413.221 245.977 414.317 244.94C415.413 243.923 416.022 244.94 415.534 246.14C415.047 247.34 419.695 245.123 420.812 241.522C421.928 237.922 419.979 238.105 419.776 236.05C419.574 233.996 421.908 231.595 419.431 229.724C416.955 227.852 414.621 230.232 413.728 229.032C412.855 227.832 408.999 227.669 405.914 230.232C402.829 232.795 402.666 236.437 402.666 236.437" fill="#128ECC" fill-opacity="0.5"/>
<path d="M413.728 245.306C413.728 245.306 415.068 243.577 416.57 244.289C418.051 245.062 413.545 250.188 411.922 249.618C410.399 248.947 413.728 245.306 413.728 245.306Z" fill="#128ECC" fill-opacity="0.5"/>
<path d="M392.498 253.402C392.498 253.402 393.959 248.093 397.633 247.421C401.327 246.73 402.991 248.967 402.748 250.839C402.504 252.71 404.128 253.748 404.128 253.748C404.128 253.748 394.832 258.182 392.498 253.402Z" fill="#128ECC" fill-opacity="0.5"/>
<path d="M398.039 397.811L433.03 319.168C433.883 317.256 432.482 315.1 430.412 315.1H332.257C328.624 315.1 325.316 317.256 323.834 320.572L288.315 400.415C287.462 402.327 288.863 404.483 290.933 404.483H387.789C392.214 404.483 396.232 401.879 398.039 397.811Z" fill="white"/>
<path opacity="0.39" d="M378.277 378.253C395.169 364.403 401.366 343.99 392.117 332.659C382.869 321.329 361.677 323.372 344.785 337.222C327.892 351.073 321.695 371.486 330.944 382.817C340.192 394.147 361.384 392.104 378.277 378.253Z" fill="#128ECC" fill-opacity="0.6"/>
<path d="M370.496 348.501C370.496 348.501 375.306 346.203 375.956 348.99C376.605 351.776 374.474 353.77 374.474 353.77C374.474 353.77 378.818 352.57 379.995 356.292C381.152 360.015 377.661 361.785 379.102 363.127C380.543 364.45 383.547 367.297 379.345 372.017C375.144 376.736 368.994 382.147 361.89 378.669C354.766 375.19 357.039 358.205 357.039 358.205L358.785 353.241L370.496 348.501Z" fill="#128ECC" fill-opacity="0.5"/>
<path d="M365.848 334.262C365.848 334.262 355.111 335.177 351.722 342.704C348.332 350.231 355.071 350.759 355.071 350.759L365.848 334.262Z" fill="#128ECC" fill-opacity="0.5"/>
<path d="M296.109 385.463C296.799 386.704 296.799 386.704 296.799 386.704C296.799 386.704 305.059 396.59 312.427 402.917H327.751C335.748 395.614 346.647 382.9 346.708 382.371C346.769 381.639 356.309 371.244 354.218 366.992C352.107 362.761 349.388 363.433 349.388 363.433C349.388 363.433 346.282 363.86 342.791 367.481C339.3 371.101 322.088 397.851 322.088 397.851C322.088 397.851 319.876 393.864 315.817 390.813C311.737 387.762 299.843 381.334 299.843 381.334C299.843 381.334 300.574 376.167 300.513 375.19C300.452 374.193 297.489 369.698 296.575 370.654C295.682 371.63 297.773 375.862 297.773 375.862C297.773 375.862 295.419 384.222 296.109 385.463Z" fill="#128ECC" fill-opacity="0.5"/>
<path d="M334.449 395.431C334.449 395.431 334.896 398.726 335.789 402.917H366.213C366.883 396.041 368.304 382.208 369.156 378.913C370.293 374.499 369.299 365.101 369.664 362.517C370.029 359.934 362.682 360.89 362.682 360.89L353.102 361.053L351.559 361.724C349.428 362.639 347.52 364.246 346.262 366.158C345.085 367.969 343.319 370.634 340.985 374.112C337.209 376.98 328.847 381.985 329.476 388.291C330.045 394.597 334.449 395.431 334.449 395.431Z" fill="#128ECC"/>
<path d="M356.288 355.214C356.288 355.214 347.784 365.752 345.45 379.035C348.231 378.181 356.654 370.43 361.647 365.691C363.737 363.697 363.94 362.599 363.555 360.564C363.372 359.547 364.245 356.76 365.422 353.567C366.193 349.152 356.288 355.214 356.288 355.214Z" fill="#128ECC" fill-opacity="0.5"/>
<path d="M382.979 398.36C382.979 398.36 384.298 400.191 386.49 402.937H400.109C397.491 399.458 395.4 396.631 394.751 395.654C392.518 392.278 376.971 358.266 367.492 362.497C365.747 363.27 359.414 368.62 361.992 374.58C364.549 380.561 382.979 398.36 382.979 398.36Z" fill="#128ECC" fill-opacity="0.5"/>
<path d="M355.923 341.3C354.583 342.989 351.214 347.403 349.225 351.288C347.48 354.686 348.677 357.798 351.925 358.144C356.613 358.652 363.737 357.472 366.092 354.787C369.583 350.8 377.032 343.741 374.007 338.249C371.064 332.919 364.366 333.469 357.141 339.978C356.674 340.405 356.268 340.853 355.923 341.3Z" fill="#128ECC" fill-opacity="0.5"/>
<path d="M359.069 337.822C359.069 337.822 354.38 345.511 367.715 350.434L369.4 351.187C369.4 351.187 375.225 346.549 375.306 341.646C375.388 336.744 372.871 334.954 370.313 333.875C367.776 332.818 360.855 335.991 359.069 337.822Z" fill="#128ECC" fill-opacity="0.5"/>
<path d="M367.35 351.532C367.35 351.532 370.719 349.193 370.679 351.349C370.638 353.506 365.909 355.804 365.402 354.909C364.914 354.014 367.35 351.532 367.35 351.532Z" fill="#128ECC" fill-opacity="0.5"/>
<path d="M291.38 332.635H183.259C179.951 332.635 178.347 329.949 179.687 326.613L187.379 307.553C188.719 304.237 192.494 301.531 195.802 301.531H303.923C307.231 301.531 308.835 304.217 307.495 307.553L299.803 326.613C298.463 329.949 294.688 332.635 291.38 332.635Z" fill="#128ECC"/>
<path d="M290.527 318.598H197.426L199.253 314.083H292.354L290.527 318.598Z" fill="white"/>
<path d="M203.941 18.6944H200.288C199.638 18.6944 199.334 18.1655 199.598 17.5145L201.08 13.8529C201.343 13.202 202.074 12.6731 202.724 12.6731H206.377C207.026 12.6731 207.331 13.202 207.067 13.8529L205.585 17.5145C205.322 18.1655 204.591 18.6944 203.941 18.6944Z" fill="#F9FBFC"/>
<path d="M241.45 18.6944H237.796C237.147 18.6944 236.842 18.1655 237.106 17.5145L238.588 13.8529C238.852 13.202 239.582 12.6731 240.232 12.6731H243.885C244.535 12.6731 244.839 13.202 244.575 13.8529L243.094 17.5145C242.83 18.1655 242.079 18.6944 241.45 18.6944Z" fill="#C8E5F3"/>
<path d="M196.959 35.9649H193.306C192.656 35.9649 192.352 35.436 192.616 34.785L194.097 31.1234C194.361 30.4725 195.092 29.9436 195.742 29.9436H199.395C200.044 29.9436 200.349 30.4725 200.085 31.1234L198.603 34.785C198.36 35.4563 197.609 35.9649 196.959 35.9649Z" fill="#C8E5F3"/>
<path d="M215.713 35.9649H212.06C211.411 35.9649 211.106 35.436 211.37 34.785L212.852 31.1234C213.115 30.4725 213.846 29.9436 214.496 29.9436H218.149C218.799 29.9436 219.103 30.4725 218.839 31.1234L217.357 34.785C217.114 35.4563 216.363 35.9649 215.713 35.9649Z" fill="#F9FBFC"/>
<path d="M234.468 35.9649H230.814C230.165 35.9649 229.86 35.436 230.124 34.785L231.606 31.1234C231.87 30.4725 232.6 29.9436 233.25 29.9436H236.903C237.553 29.9436 237.857 30.4725 237.593 31.1234L236.112 34.785C235.848 35.4563 235.117 35.9649 234.468 35.9649Z" fill="#F9FBFC"/>
<path d="M249.467 35.9649H245.813C245.164 35.9649 244.86 35.436 245.123 34.785L246.605 31.1234C246.869 30.4725 247.6 29.9436 248.249 29.9436H251.902C252.552 29.9436 252.856 30.4725 252.593 31.1234L251.111 34.785C250.847 35.4563 250.116 35.9649 249.467 35.9649Z" fill="#F9FBFC"/>
<path d="M189.998 53.2556H186.344C185.695 53.2556 185.39 52.7268 185.654 52.0758L187.136 48.4142C187.4 47.7633 188.13 47.2344 188.78 47.2344H192.433C193.083 47.2344 193.387 47.7633 193.123 48.4142L191.642 52.0758C191.378 52.7471 190.647 53.2556 189.998 53.2556Z" fill="#F9FBFC"/>
<path d="M174.998 53.2556H171.345C170.695 53.2556 170.391 52.7268 170.655 52.0758L172.136 48.4142C172.4 47.7633 173.131 47.2344 173.78 47.2344H177.434C178.083 47.2344 178.388 47.7633 178.124 48.4142L176.642 52.0758C176.378 52.7471 175.648 53.2556 174.998 53.2556Z" fill="#F9FBFC"/>
<path d="M208.752 53.2556H205.098C204.449 53.2556 204.144 52.7268 204.408 52.0758L205.89 48.4142C206.154 47.7633 206.884 47.2344 207.534 47.2344H211.187C211.837 47.2344 212.141 47.7633 211.877 48.4142L210.396 52.0758C210.132 52.7471 209.401 53.2556 208.752 53.2556Z" fill="#F9FBFC"/>
<path d="M227.506 53.2556H223.852C223.203 53.2556 222.898 52.7268 223.162 52.0758L224.644 48.4142C224.908 47.7633 225.639 47.2344 226.288 47.2344H229.941C230.591 47.2344 230.895 47.7633 230.632 48.4142L229.15 52.0758C228.886 52.7471 228.155 53.2556 227.506 53.2556Z" fill="#C8E5F3"/>
<path d="M183.036 70.5464H179.382C178.733 70.5464 178.428 70.0175 178.692 69.3666L180.174 65.705C180.438 65.054 181.168 64.5251 181.818 64.5251H185.471C186.121 64.5251 186.425 65.054 186.161 65.705L184.68 69.3666C184.416 70.0175 183.685 70.5464 183.036 70.5464Z" fill="#F9FBFC"/>
<path d="M205.423 358.083H200.268C199.354 358.083 198.908 357.35 199.273 356.435L201.364 351.268C201.729 350.353 202.764 349.62 203.677 349.62H208.833C209.746 349.62 210.193 350.353 209.827 351.268L207.737 356.435C207.371 357.35 206.336 358.083 205.423 358.083Z" fill="#128ECC"/>
<path d="M258.296 358.083H253.141C252.227 358.083 251.781 357.35 252.146 356.435L254.237 351.268C254.602 350.353 255.637 349.62 256.55 349.62H261.706C262.619 349.62 263.066 350.353 262.7 351.268L260.61 356.435C260.244 357.35 259.189 358.083 258.296 358.083Z" fill="#128ECC"/>
<path d="M195.599 382.453H190.444C189.531 382.453 189.084 381.72 189.45 380.805L191.54 375.638C191.905 374.723 192.941 373.99 193.854 373.99H199.009C199.923 373.99 200.369 374.723 200.004 375.638L197.913 380.805C197.548 381.72 196.513 382.453 195.599 382.453Z" fill="#C8E5F3"/>
<path d="M222.026 382.453H216.87C215.957 382.453 215.51 381.72 215.876 380.805L217.966 375.638C218.332 374.723 219.367 373.99 220.28 373.99H225.436C226.349 373.99 226.795 374.723 226.43 375.638L224.34 380.805C223.974 381.72 222.939 382.453 222.026 382.453Z" fill="#F8CE18"/>
<path d="M248.472 382.453H243.317C242.404 382.453 241.957 381.72 242.322 380.805L244.413 375.638C244.778 374.723 245.813 373.99 246.727 373.99H251.882C252.796 373.99 253.242 374.723 252.877 375.638L250.786 380.805C250.421 381.72 249.365 382.453 248.472 382.453Z" fill="#C8E5F3"/>
<path d="M269.601 382.453H264.446C263.532 382.453 263.086 381.72 263.451 380.805L265.542 375.638C265.907 374.723 266.942 373.99 267.856 373.99H273.011C273.924 373.99 274.371 374.723 274.006 375.638L271.915 380.805C271.55 381.72 270.515 382.453 269.601 382.453Z" fill="#C8E5F3"/>
<path d="M185.776 406.822H180.62C179.707 406.822 179.261 406.09 179.626 405.175L181.716 400.008C182.082 399.092 183.117 398.36 184.03 398.36H189.186C190.099 398.36 190.546 399.092 190.18 400.008L188.09 405.175C187.724 406.09 186.689 406.822 185.776 406.822Z" fill="#C8E5F3"/>
<path d="M164.647 406.822H159.492C158.578 406.822 158.132 406.09 158.497 405.175L160.588 400.008C160.953 399.092 161.988 398.36 162.901 398.36H168.057C168.97 398.36 169.417 399.092 169.051 400.008L166.961 405.175C166.595 406.09 165.54 406.822 164.647 406.822Z" fill="#C8E5F3"/>
<path d="M212.202 406.822H207.047C206.133 406.822 205.687 406.09 206.072 405.175L208.163 400.008C208.528 399.092 209.564 398.36 210.477 398.36H215.632C216.546 398.36 216.992 399.092 216.627 400.008L214.536 405.175C214.151 406.09 213.115 406.822 212.202 406.822Z" fill="#C8E5F3"/>
<path d="M238.649 406.822H233.493C232.58 406.822 232.133 406.09 232.499 405.175L234.589 400.008C234.955 399.092 235.99 398.36 236.903 398.36H242.059C242.972 398.36 243.418 399.092 243.053 400.008L240.963 405.175C240.597 406.09 239.542 406.822 238.649 406.822Z" fill="#F8CE18"/>
<path d="M175.952 431.192H170.797C169.883 431.192 169.437 430.46 169.802 429.545L171.893 424.378C172.258 423.462 173.293 422.73 174.207 422.73H179.362C180.275 422.73 180.722 423.462 180.357 424.378L178.266 429.545C177.901 430.46 176.866 431.192 175.952 431.192Z" fill="#F8CE18"/>
<path opacity="0.39" d="M295.317 255.477H149.079L173.253 208.121H319.511L295.317 255.477Z" fill="#128ECC" fill-opacity="0.6"/>
<path d="M283.044 244.364C292.052 236.392 294.326 224.223 288.123 217.182C281.92 210.142 269.59 210.897 260.582 218.868C251.574 226.84 249.301 239.01 255.503 246.05C261.706 253.09 274.037 252.335 283.044 244.364Z" fill="#128ECC"/>
<path d="M266.861 241.38C266.252 241.38 265.704 241.156 265.359 240.688L260.387 234.057C259.696 233.141 260.062 231.636 261.219 230.7C262.376 229.785 263.857 229.785 264.568 230.7L268.282 235.664L281.536 225.025C282.693 224.11 284.174 224.11 284.885 225.025C285.575 225.94 285.209 227.446 284.052 228.381L268.708 240.688C268.14 241.156 267.47 241.38 266.861 241.38Z" fill="white"/>
<path d="M156.549 118.005C156.549 121.727 153.829 124.738 150.48 124.738C147.131 124.738 144.411 121.727 144.411 118.005C144.411 114.282 147.131 111.271 150.48 111.271C153.829 111.271 156.549 114.282 156.549 118.005Z" stroke="#505E83" stroke-width="0.5192" stroke-miterlimit="10"/>
<path d="M92.9793 154.397C92.9793 154.397 83.2977 155.048 76.0721 164.832C68.8465 174.617 79.3196 210.521 110.434 225.025C130.691 232.999 132.132 214.874 127.078 202.181C122.004 189.487 107.349 157.367 92.9793 154.397Z" fill="white"/>
<path d="M231.261 538.66C231.261 543.257 186.892 547 132.152 547C77.4117 547 33.0431 543.257 33.0431 538.66C33.0431 534.062 77.4117 530.32 132.152 530.32C186.892 530.32 231.261 534.062 231.261 538.66Z" fill="#C8E5F3"/>
<path d="M95.9426 511.686C95.9426 511.686 98.0534 507.17 105.847 508.37C113.662 509.571 114.555 511.076 115.468 515.002C116.361 518.908 119.081 523.139 120.867 524.034C122.673 524.929 129.27 529.445 134.689 530.36C140.088 531.255 140.697 534.571 139.499 536.076C138.302 537.582 117.883 538.782 113.377 538.192C113.377 538.192 98.0534 537.887 94.4609 536.687C90.8278 535.466 95.6381 513.191 95.9426 511.686Z" fill="#16142A"/>
<path d="M135.075 511.686C135.075 511.686 137.186 507.17 144.979 508.37C152.794 509.571 153.687 511.076 154.6 515.002C155.493 518.908 158.213 523.139 159.999 524.034C161.805 524.929 168.402 529.445 173.821 530.36C179.22 531.255 179.829 534.571 178.631 536.076C177.434 537.582 157.015 538.782 152.51 538.192C152.51 538.192 137.186 537.887 133.593 536.687C129.96 535.466 134.77 513.191 135.075 511.686Z" fill="#16142A"/>
<path d="M88.717 399.601C88.717 399.601 86.4234 387.131 99.5757 382.941C112.708 378.75 115.204 384.833 119.182 396.204C123.16 407.575 115.813 514.941 115.813 514.941C115.813 514.941 99.799 515.307 95.9223 513.008C95.9223 513.008 85.2259 441.75 86.0175 424.398C86.8091 407.067 88.717 399.601 88.717 399.601Z" fill="#2B3554"/>
<path d="M150.216 122.582C150.216 122.582 153.281 126.752 153.281 128.929C153.281 131.105 149.12 131.105 149.12 131.105L150.216 122.582Z" fill="#FF7759"/>
<path d="M135.42 80.1277C135.42 80.1277 144.31 82.406 149.343 96.076C154.377 109.746 151.028 138.815 147.659 142.232C144.31 145.65 134.1 144.348 119.974 139.669C105.036 134.726 99.9816 119.164 97.3228 108.892C92.208 89.241 109.257 69.0209 135.42 80.1277Z" fill="#FF8D68"/>
<path d="M103.534 155.618L110.739 129.722C110.739 129.722 125.15 125.511 134.161 135.133L137.165 139.344V156.207C137.186 156.207 122.166 159.218 103.534 155.618Z" fill="#FF8D68"/>
<path d="M83.4195 294.982C83.4195 294.982 78.0206 326.593 83.4195 362.721C88.8184 398.848 99.6366 402.449 109.541 402.449C119.446 402.449 122.166 373.543 123.952 360.91C125.758 348.258 132.964 304.929 119.446 294.982C105.949 285.055 90.6248 284.159 83.4195 294.982Z" fill="#2B3554"/>
<path d="M121.253 337.436C121.253 337.436 110.434 308.529 129.371 295.897C148.288 283.244 162.719 285.054 167.225 305.824C171.73 326.593 172.623 397.933 166.332 412.396C159.999 426.839 137.49 404.259 121.253 337.436Z" fill="#2B3F63"/>
<path d="M99.7178 155.475C99.7178 155.475 101.727 148.396 103.534 147.786C105.34 147.176 127.565 144.775 139.58 151.997C144.979 156.208 144.391 159.218 144.391 159.218C144.391 159.218 108.527 152.322 99.7178 155.475Z" fill="white"/>
<path d="M165.784 294.981C165.784 294.981 167.59 299.335 166.514 300.779C165.073 302.223 124.196 316.727 81.1463 306.21C80.4156 306.21 82.222 298.969 82.222 298.969L165.784 294.981Z" fill="#F8CE18"/>
<path d="M80.7201 229.663C79.5226 221.241 75.9097 179.682 77.1073 173.661C78.2236 168.026 83.0339 157.672 92.959 154.377C93.6491 154.153 94.3797 153.949 95.1307 153.787C95.1307 153.787 132.375 151.386 158.801 162.819C158.801 162.819 167.854 170.345 169.518 208.731C169.518 208.731 169.031 215.199 167.57 228.991C166.129 242.763 168.3 252.914 170.472 266.706C172.644 280.477 176.987 294.269 161.075 297.158C145.872 300.067 103.919 307.309 79.3196 300.067C74.2454 296.446 81.4913 279.765 81.4913 266.706C81.4913 253.646 80.7201 229.663 80.7201 229.663Z" fill="#6DBADF"/>
<path d="M138.383 401.554C138.383 401.554 137.49 388.901 151.008 386.196C164.525 383.49 166.332 389.816 169.031 401.554C171.73 413.291 155.716 515.673 155.716 515.673C155.716 515.673 138.038 516.69 134.425 513.985C134.425 513.985 130.285 443.092 133.004 425.924C135.684 408.775 138.383 401.554 138.383 401.554Z" fill="#2B3F63"/>
<path d="M117.66 330.662C117.66 330.662 130.285 371.305 139.743 391.159" stroke="#2A2E59" stroke-width="0.6659" stroke-miterlimit="10"/>
<path d="M143.335 399.296C143.335 399.296 150.987 394.78 158.659 399.296" stroke="#2A2E59" stroke-width="0.6659" stroke-miterlimit="10"/>
<path d="M141.996 404.259C141.996 404.259 148.308 400.639 159.106 408.328" stroke="#2A2E59" stroke-width="0.6659" stroke-miterlimit="10"/>
<path d="M94.6842 393.885C94.6842 393.885 99.6366 389.369 110.901 394.332" stroke="#2A2E59" stroke-width="0.6659" stroke-miterlimit="10"/>
<path d="M98.2767 398.401C98.2767 398.401 105.482 394.78 112.241 400.211" stroke="#2A2E59" stroke-width="0.6659" stroke-miterlimit="10"/>
<path d="M114.961 405.622L112.261 497.732" stroke="#2A2E59" stroke-width="0.6659" stroke-miterlimit="10"/>
<path d="M152.205 328.404C152.205 328.404 162.414 334.425 166.616 324.783" stroke="#2A2E59" stroke-width="0.6659" stroke-miterlimit="10"/>
<path d="M162.414 329.604C162.414 329.604 167.225 366.932 166.027 391.607" stroke="#2A2E59" stroke-width="0.6659" stroke-miterlimit="10"/>
<path d="M131.401 136.272C131.401 136.272 134.547 144.409 145.142 143.046" stroke="#E66657" stroke-width="0.6659" stroke-miterlimit="10"/>
<path d="M145 86.1084C145 86.1084 150.135 93.1875 150.459 97.3576C150.784 101.528 144.046 105.718 143.092 108.281C142.138 110.844 144.33 114.079 143.376 115.686C142.381 117.293 142.077 120.588 142.077 120.588L142.402 124.23C142.524 125.552 141.63 126.772 140.311 127.037L139.54 127.2C138.424 127.423 137.328 126.833 136.922 125.776C135.765 122.867 133.39 117.435 131.523 116.967C128.965 116.317 126.388 120.832 125.434 123.07C124.886 124.331 123.526 127.769 122.45 130.515C121.496 132.916 119.263 134.563 116.686 134.746C113.905 134.95 110.576 135.092 109.359 134.726C107.106 134.075 95.6178 112.777 95.2931 102.484C94.9683 92.1907 102.032 81.918 109.399 78.7039C116.767 75.4898 131.198 72.6013 145 86.1084Z" fill="#7E3636"/>
<path d="M93.0198 175.471C93.0198 178.36 105.117 222.014 103.188 229.724C101.26 237.434 95.9629 291.361 95.9629 291.361" stroke="#6060E7" stroke-width="0.6659" stroke-miterlimit="10"/>
<path d="M126.53 72.0926C126.53 72.0926 133.593 72.3571 136.029 68.8379C138.464 65.2984 146.339 64.4847 152.043 70.2008C157.746 75.917 157.462 86.5152 152.591 90.3192C152.591 90.3192 158.294 89.2411 159.106 93.3095C159.918 97.3983 152.875 103.643 144.452 105.555C144.452 105.555 130.894 101.751 126.814 104.193C122.734 106.634 95.3337 103.928 95.3337 103.928C95.3337 103.928 89.3665 98.4967 90.9902 93.5943C92.6139 88.6918 94.2377 93.8587 94.2377 93.8587C94.2377 93.8587 92.8778 87.0645 101.829 77.2799C110.779 67.475 123.262 72.9063 126.53 72.0926Z" fill="#7E3636"/>
<path d="M259.737 217.844L278.999 218.658C278.999 218.658 278.451 220.57 275.467 221.099C272.483 221.648 261.361 223.011 261.361 223.011L259.737 217.844Z" fill="#EB7754"/>
<path d="M262.193 221.933C262.193 221.933 268.708 220.855 270.068 221.119C271.428 221.384 272.788 229.276 272.788 229.276L267.632 234.708C267.632 234.708 265.725 233.894 267.632 230.904L268.708 228.992L260.833 226.001L262.193 221.933Z" fill="#FF8D68"/>
<path d="M243.459 226.55L251.598 225.472C251.598 225.472 258.377 218.678 259.737 217.864C261.097 217.051 267.876 227.649 268.688 229.012C268.688 230.09 264.608 233.629 260.549 234.179C256.469 234.728 255.13 233.629 255.13 233.629L246.179 237.169L243.459 226.55Z" fill="#FF8D68"/>
<path d="M158.801 162.839C158.801 162.839 140.636 162.656 141.164 184.951C141.712 207.246 179.687 243.679 189.997 248.032C200.308 252.385 244.271 240.424 248.066 238.247C251.862 236.071 250.786 226.835 244.819 224.659L199.78 222.482C199.78 222.482 171.548 164.649 158.801 162.839Z" fill="white"/>
<path d="M200.511 226.103C200.511 226.103 205.93 231.901 204.489 239.508" stroke="#A6D0F4" stroke-width="0.5347" stroke-miterlimit="10"/>
<path d="M203.393 225.004C203.393 225.004 212.446 227.913 213.156 237.698" stroke="#A6D0F4" stroke-width="0.5347" stroke-miterlimit="10"/>
<path d="M156.549 118.005H137.734" stroke="#505E83" stroke-width="0.5192" stroke-miterlimit="10"/>
<path d="M139.966 120.243C139.966 120.243 138.687 114.689 133.999 117.252C129.31 119.815 134.851 133.058 138.687 132.204C142.524 131.37 140.819 122.378 139.966 120.243Z" fill="#FF7759"/>
<path d="M100.753 94.1232C100.753 94.1232 113.783 91.1329 122.998 100.917" stroke="#663136" stroke-width="0.5347" stroke-miterlimit="10"/>
<path d="M102.458 92.1297C102.458 92.1297 108.06 86.1491 117.66 88.6919" stroke="#663136" stroke-width="0.5347" stroke-miterlimit="10"/>
<path d="M101.199 96.666C101.199 96.666 105.178 97.0322 107.897 101.568" stroke="#663136" stroke-width="0.5347" stroke-miterlimit="10"/>
<path d="M140.636 70.7297C140.636 70.7297 153.666 74.8185 150.683 86.7797" stroke="#663136" stroke-width="0.5347" stroke-miterlimit="10"/>
<defs>
<linearGradient id="paint0_linear_303_28" x1="138.273" y1="230.668" x2="524.006" y2="230.668" gradientUnits="userSpaceOnUse">
<stop stop-color="white" stop-opacity="0.2"/>
<stop offset="1" stop-color="white" stop-opacity="0.7"/>
</linearGradient>
</defs>
</svg>
