<svg width="196" height="40" viewBox="0 0 196 40" fill="none" xmlns="http://www.w3.org/2000/svg">
<path fill-rule="evenodd" clip-rule="evenodd" d="M19.9318 40C30.9398 40 39.8636 31.0457 39.8636 20C39.8636 19.9958 39.8636 19.9917 39.8636 19.9875V0H19.9318C8.92378 0 0 8.9543 0 20C0 31.0457 8.92378 40 19.9318 40Z" fill="#80CBCE"/>
<rect x="12.3387" y="12.3809" width="15.1862" height="15.2382" rx="7.59311" fill="#128ECC"/>
<path d="M58.6209 30.4456C57.9999 30.4636 57.5159 30.3021 57.1689 29.9611C56.8218 29.6201 56.6483 29.1805 56.6483 28.6421C56.6483 28.2294 56.7762 27.8705 57.0319 27.5654C57.2693 27.2424 57.6255 27.0719 58.1004 27.054L58.8949 27.0001C59.6255 26.9463 60.1734 26.7399 60.5387 26.381C60.904 26.0221 61.0867 25.4748 61.0867 24.739V13.1374C61.0867 12.4555 61.2693 11.9351 61.6346 11.5762C61.9999 11.1993 62.5204 11.0109 63.1962 11.0109C63.8903 11.0109 64.42 11.1993 64.7853 11.5762C65.1506 11.9351 65.3332 12.4555 65.3332 13.1374V24.6852C65.3332 25.8696 65.114 26.8745 64.6757 27.7C64.2556 28.5075 63.6163 29.1356 62.7579 29.5842C61.8994 30.0329 60.8401 30.3021 59.5798 30.3918L58.6209 30.4456Z" fill="#128ECC"/>
<path d="M75.3077 30.5264C73.8648 30.5264 72.6045 30.2482 71.5269 29.6919C70.4675 29.1356 69.6456 28.337 69.0612 27.2962C68.4767 26.2554 68.1845 25.0261 68.1845 23.6085C68.1845 22.5497 68.3488 21.5986 68.6776 20.7552C69.0064 19.9117 69.4812 19.1939 70.1023 18.6017C70.7415 17.9916 71.4995 17.534 72.3762 17.2289C73.2529 16.9059 74.2301 16.7444 75.3077 16.7444C76.7506 16.7444 78.0018 17.0226 79.0611 17.5789C80.1387 18.1352 80.9698 18.9248 81.5543 19.9476C82.157 20.9705 82.4584 22.1908 82.4584 23.6085C82.4584 24.6852 82.2849 25.6453 81.9378 26.4887C81.6091 27.3321 81.1342 28.0589 80.5132 28.669C79.8922 29.2792 79.1342 29.7457 78.2392 30.0688C77.3625 30.3738 76.3853 30.5264 75.3077 30.5264ZM75.3077 27.4846C75.9105 27.4846 76.431 27.3411 76.8694 27.054C77.3077 26.7668 77.6547 26.3451 77.9104 25.7888C78.1662 25.2146 78.294 24.4878 78.294 23.6085C78.294 22.2985 78.02 21.3384 77.4721 20.7283C76.9241 20.1002 76.2027 19.7861 75.3077 19.7861C74.7232 19.7861 74.2027 19.9207 73.7461 20.1899C73.3077 20.4591 72.9607 20.8808 72.705 21.455C72.4675 22.0113 72.3488 22.7291 72.3488 23.6085C72.3488 24.9185 72.6228 25.8965 73.1707 26.5425C73.7187 27.1706 74.431 27.4846 75.3077 27.4846Z" fill="#128ECC"/>
<path d="M93.2766 30.5264C92.199 30.5264 91.2401 30.2662 90.3999 29.7457C89.578 29.2074 89.0301 28.4986 88.7561 27.6192L89.0575 26.7309V28.3999C89.0575 29.0638 88.8839 29.5753 88.5369 29.9342C88.1899 30.2931 87.6876 30.4725 87.0301 30.4725C86.3725 30.4725 85.8611 30.2931 85.4958 29.9342C85.1488 29.5753 84.9753 29.0638 84.9753 28.3999V13.0836C84.9753 12.4016 85.1488 11.8902 85.4958 11.5492C85.8611 11.1903 86.3817 11.0109 87.0575 11.0109C87.715 11.0109 88.2173 11.1903 88.5643 11.5492C88.9296 11.8902 89.1122 12.4016 89.1122 13.0836V19.4631H88.7835C89.0757 18.6556 89.6328 18.0006 90.4547 17.4981C91.2766 16.9956 92.2173 16.7444 93.2766 16.7444C94.4638 16.7444 95.4958 17.0226 96.3725 17.5789C97.2492 18.1352 97.9341 18.9248 98.4273 19.9476C98.9204 20.9705 99.167 22.1908 99.167 23.6085C99.167 25.0261 98.9204 26.2554 98.4273 27.2962C97.9341 28.337 97.2401 29.1356 96.3451 29.6919C95.4684 30.2482 94.4456 30.5264 93.2766 30.5264ZM92.0437 27.4846C92.6282 27.4846 93.1396 27.3411 93.578 27.054C94.0346 26.7668 94.3816 26.3451 94.6191 25.7888C94.8748 25.2146 95.0026 24.4878 95.0026 23.6085C95.0026 22.2985 94.7287 21.3384 94.1807 20.7283C93.6328 20.1002 92.9205 19.7861 92.0437 19.7861C91.4593 19.7861 90.9387 19.9207 90.4821 20.1899C90.0438 20.4591 89.6967 20.8808 89.441 21.455C89.1853 22.0113 89.0575 22.7291 89.0575 23.6085C89.0575 24.9185 89.3314 25.8965 89.8794 26.5425C90.4273 27.1706 91.1488 27.4846 92.0437 27.4846Z" fill="#128ECC"/>
<path d="M104.19 30.4725C103.496 30.4725 102.967 30.2841 102.601 29.9073C102.236 29.5304 102.053 29.001 102.053 28.3191V13.1643C102.053 12.4824 102.236 11.953 102.601 11.5762C102.967 11.1993 103.496 11.0109 104.19 11.0109C104.866 11.0109 105.387 11.1993 105.752 11.5762C106.117 11.953 106.3 12.4824 106.3 13.1643V18.8709H115.286V13.1643C115.286 12.4824 115.469 11.953 115.834 11.5762C116.199 11.1993 116.72 11.0109 117.396 11.0109C118.09 11.0109 118.619 11.1993 118.985 11.5762C119.35 11.953 119.533 12.4824 119.533 13.1643V28.3191C119.533 29.001 119.35 29.5304 118.985 29.9073C118.619 30.2841 118.09 30.4725 117.396 30.4725C116.72 30.4725 116.199 30.2841 115.834 29.9073C115.469 29.5304 115.286 29.001 115.286 28.3191V22.3433H106.3V28.3191C106.3 29.001 106.117 29.5304 105.752 29.9073C105.405 30.2841 104.884 30.4725 104.19 30.4725Z" fill="#128ECC"/>
<path d="M128.033 30.5264C126.901 30.5264 125.96 30.32 125.211 29.9073C124.463 29.4945 123.906 28.8754 123.54 28.0499C123.193 27.2065 123.02 26.1657 123.02 24.9274V18.844C123.02 18.1621 123.193 17.6506 123.54 17.3097C123.906 16.9687 124.417 16.7982 125.074 16.7982C125.732 16.7982 126.243 16.9687 126.609 17.3097C126.974 17.6506 127.157 18.1621 127.157 18.844V25.0351C127.157 25.8247 127.321 26.4169 127.65 26.8117C127.979 27.1885 128.499 27.377 129.211 27.377C129.997 27.377 130.636 27.1078 131.129 26.5694C131.641 26.0131 131.896 25.2864 131.896 24.3891V18.844C131.896 18.1621 132.07 17.6506 132.417 17.3097C132.782 16.9687 133.294 16.7982 133.951 16.7982C134.627 16.7982 135.138 16.9687 135.485 17.3097C135.851 17.6506 136.033 18.1621 136.033 18.844V28.3999C136.033 29.7816 135.367 30.4725 134.033 30.4725C133.376 30.4725 132.874 30.2931 132.526 29.9342C132.179 29.5753 132.006 29.0638 132.006 28.3999V26.5964L132.417 27.6462C132.015 28.5614 131.44 29.2702 130.691 29.7727C129.942 30.2751 129.056 30.5264 128.033 30.5264Z" fill="#128ECC"/>
<path d="M141.317 30.4725C140.641 30.4725 140.12 30.2931 139.755 29.9342C139.408 29.5753 139.235 29.0638 139.235 28.3999V18.844C139.235 18.18 139.408 17.6776 139.755 17.3366C140.12 16.9777 140.623 16.7982 141.262 16.7982C141.919 16.7982 142.422 16.9777 142.769 17.3366C143.116 17.6776 143.289 18.18 143.289 18.844V20.3783L142.988 19.49C143.408 18.6107 144.029 17.9378 144.851 17.4712C145.691 16.9867 146.641 16.7444 147.7 16.7444C148.778 16.7444 149.664 16.9508 150.358 17.3635C151.052 17.7583 151.572 18.3684 151.919 19.1939C152.266 20.0015 152.44 21.0333 152.44 22.2895V28.3999C152.44 29.0638 152.257 29.5753 151.892 29.9342C151.545 30.2931 151.034 30.4725 150.358 30.4725C149.7 30.4725 149.189 30.2931 148.824 29.9342C148.476 29.5753 148.303 29.0638 148.303 28.3999V22.4779C148.303 21.5627 148.129 20.9077 147.782 20.5129C147.454 20.1002 146.942 19.8938 146.248 19.8938C145.371 19.8938 144.668 20.163 144.139 20.7013C143.627 21.2397 143.371 21.9575 143.371 22.8548V28.3999C143.371 29.7816 142.687 30.4725 141.317 30.4725Z" fill="#128ECC"/>
<path d="M162.131 30.5264C160.871 30.5264 159.811 30.32 158.953 29.9073C158.113 29.4945 157.483 28.8933 157.063 28.1038C156.661 27.3142 156.46 26.3182 156.46 25.1159V20.0553H155.309C154.798 20.0553 154.396 19.9207 154.104 19.6515C153.83 19.3824 153.693 19.0145 153.693 18.5479C153.693 18.0454 153.83 17.6686 154.104 17.4174C154.396 17.1482 154.798 17.0136 155.309 17.0136H156.46V14.9678C156.46 14.2859 156.642 13.7745 157.008 13.4335C157.373 13.0746 157.884 12.8951 158.542 12.8951C159.218 12.8951 159.729 13.0746 160.076 13.4335C160.423 13.7745 160.597 14.2859 160.597 14.9678V17.0136H163.2C163.711 17.0136 164.104 17.1482 164.378 17.4174C164.652 17.6686 164.789 18.0454 164.789 18.5479C164.789 19.0145 164.652 19.3824 164.378 19.6515C164.104 19.9207 163.711 20.0553 163.2 20.0553H160.597V24.9544C160.597 25.7081 160.77 26.2733 161.117 26.6502C161.483 27.027 162.058 27.2155 162.843 27.2155C163.117 27.2155 163.373 27.1885 163.611 27.1347C163.848 27.0809 164.067 27.045 164.268 27.027C164.524 27.0091 164.734 27.0898 164.898 27.2693C165.063 27.4308 165.145 27.7987 165.145 28.3729C165.145 28.8036 165.072 29.1805 164.926 29.5035C164.779 29.8265 164.524 30.0598 164.158 30.2034C163.921 30.2931 163.592 30.3649 163.172 30.4187C162.77 30.4905 162.423 30.5264 162.131 30.5264Z" fill="#128ECC"/>
<path d="M169.14 30.3649C168.409 30.3649 167.825 30.1495 167.387 29.7188C166.967 29.2881 166.756 28.7318 166.756 28.0499C166.756 27.3859 166.967 26.8476 167.387 26.4348C167.825 26.0042 168.409 25.7888 169.14 25.7888C169.871 25.7888 170.437 26.0042 170.839 26.4348C171.259 26.8476 171.469 27.3859 171.469 28.0499C171.469 28.7318 171.259 29.2881 170.839 29.7188C170.437 30.1495 169.871 30.3649 169.14 30.3649Z" fill="#128ECC"/>
<path d="M176.339 30.4456C175.663 30.4456 175.143 30.2572 174.777 29.8803C174.43 29.4855 174.257 28.9382 174.257 28.2383V19.0324C174.257 18.3146 174.43 17.7673 174.777 17.3904C175.143 16.9956 175.663 16.7982 176.339 16.7982C176.997 16.7982 177.499 16.9956 177.846 17.3904C178.211 17.7673 178.394 18.3146 178.394 19.0324V28.2383C178.394 28.9382 178.22 29.4855 177.873 29.8803C177.526 30.2572 177.015 30.4456 176.339 30.4456ZM176.339 14.591C175.572 14.591 174.978 14.4205 174.558 14.0795C174.156 13.7206 173.956 13.2182 173.956 12.5721C173.956 11.9082 174.156 11.4057 174.558 11.0647C174.978 10.7058 175.572 10.5264 176.339 10.5264C177.106 10.5264 177.691 10.7058 178.092 11.0647C178.494 11.4057 178.695 11.9082 178.695 12.5721C178.695 13.2182 178.494 13.7206 178.092 14.0795C177.691 14.4205 177.106 14.591 176.339 14.591Z" fill="#F8CE18"/>
<path d="M186.821 30.5264C185.652 30.5264 184.62 30.2482 183.725 29.6919C182.848 29.1356 182.163 28.337 181.67 27.2962C181.177 26.2554 180.93 25.0261 180.93 23.6085C180.93 22.1908 181.177 20.9705 181.67 19.9476C182.163 18.9248 182.848 18.1352 183.725 17.5789C184.62 17.0226 185.652 16.7444 186.821 16.7444C187.88 16.7444 188.811 16.9956 189.615 17.4981C190.437 18.0006 190.994 18.6556 191.286 19.4631H190.985V13.0836C190.985 12.4016 191.158 11.8902 191.506 11.5492C191.853 11.1903 192.364 11.0109 193.04 11.0109C193.697 11.0109 194.209 11.1903 194.574 11.5492C194.939 11.8902 195.122 12.4016 195.122 13.0836V28.3999C195.122 29.0638 194.939 29.5753 194.574 29.9342C194.227 30.2931 193.725 30.4725 193.067 30.4725C192.41 30.4725 191.898 30.2931 191.533 29.9342C191.186 29.5753 191.012 29.0638 191.012 28.3999V26.5694L191.314 27.6192C191.058 28.4986 190.51 29.2074 189.67 29.7457C188.848 30.2662 187.898 30.5264 186.821 30.5264ZM188.053 27.4846C188.656 27.4846 189.177 27.3411 189.615 27.054C190.053 26.7668 190.401 26.3451 190.656 25.7888C190.912 25.2146 191.04 24.4878 191.04 23.6085C191.04 22.2985 190.766 21.3384 190.218 20.7283C189.67 20.1002 188.948 19.7861 188.053 19.7861C187.469 19.7861 186.948 19.9207 186.492 20.1899C186.053 20.4591 185.706 20.8808 185.451 21.455C185.213 22.0113 185.095 22.7291 185.095 23.6085C185.095 24.9185 185.369 25.8965 185.917 26.5425C186.464 27.1706 187.177 27.4846 188.053 27.4846Z" fill="#F8CE18"/>
</svg>
