<svg width="50" height="50" viewBox="0 0 50 50" fill="none" xmlns="http://www.w3.org/2000/svg">
<g clip-path="url(#clip0_303_244)">
<path d="M7.53262 8.1119L11.7424 6.98388L10.7558 20.1892L3.48719 22.1368L6.03122 9.70476C6.10906 9.3261 6.29071 8.97657 6.55587 8.69526C6.82102 8.41395 7.15922 8.21197 7.53262 8.1119ZM4.71049 26.1227L21.8954 41.7361L11.7255 24.243L4.71049 26.1227ZM15.8951 23.1258L28.1405 44.1952C28.36 44.578 28.7 44.8774 29.1074 45.0468C29.5148 45.2163 29.9669 45.2462 30.3931 45.132C30.8193 45.0178 31.1958 44.7659 31.4639 44.4154C31.732 44.065 31.8767 43.6357 31.8754 43.1944L31.9617 18.8208L15.8951 23.1258ZM36.1313 17.7035L36.0562 37.9331L43.1302 15.8282L36.1272 17.7046L36.1313 17.7035ZM42.1967 11.7646L34.9401 13.709L27.479 2.76729L31.6808 1.64142C32.0547 1.54045 32.4493 1.5457 32.8204 1.65657C33.1914 1.76745 33.5243 1.97957 33.7815 2.26911L42.1967 11.7646ZM30.678 14.8511L15.022 19.0461L16.0046 5.84184L23.2088 3.91148L30.678 14.8511Z" fill="#FFB800"/>
</g>
<defs>
<clipPath id="clip0_303_244">
<rect width="50" height="50" fill="white"/>
</clipPath>
</defs>
</svg>
