<svg width="38" height="38" viewBox="0 0 38 38" fill="none" xmlns="http://www.w3.org/2000/svg">
<rect x="0.5" y="0.5" width="37" height="37" rx="3.5" fill="white" stroke="#E0E0E0"/>
<path d="M18.4141 11.9688H19.5859C19.6901 11.9688 19.7422 12.0208 19.7422 12.125V25.875C19.7422 25.9792 19.6901 26.0312 19.5859 26.0312H18.4141C18.3099 26.0312 18.2578 25.9792 18.2578 25.875V12.125C18.2578 12.0208 18.3099 11.9688 18.4141 11.9688Z" fill="#128ECC"/>
<path d="M12.4375 18.2578H25.5625C25.6667 18.2578 25.7188 18.3099 25.7188 18.4141V19.5859C25.7188 19.6901 25.6667 19.7422 25.5625 19.7422H12.4375C12.3333 19.7422 12.2812 19.6901 12.2812 19.5859V18.4141C12.2812 18.3099 12.3333 18.2578 12.4375 18.2578Z" fill="#128ECC"/>
</svg>
